<?xml version="1.0" standalone="no"?>
<!DOCTYPE svg PUBLIC "-//W3C//DTD SVG 20010904//EN"
 "http://www.w3.org/TR/2001/REC-SVG-20010904/DTD/svg10.dtd">
<svg version="1.0" xmlns="http://www.w3.org/2000/svg"
 width="960.000000pt" height="960.000000pt" viewBox="0 0 960.000000 960.000000"
 preserveAspectRatio="xMidYMid meet">

<g transform="translate(0.000000,960.000000) scale(0.100000,-0.100000)"
fill="#000000" stroke="none">
<path d="M0 4800 l0 -4800 4800 0 4800 0 0 4800 0 4800 -4800 0 -4800 0 0
-4800z m3134 3048 c46 -193 158 -558 244 -793 48 -132 147 -388 166 -430 8
-16 40 -88 71 -160 155 -352 377 -774 593 -1125 204 -331 390 -597 636 -905
97 -122 219 -268 246 -295 3 -3 34 -38 69 -77 63 -73 63 -73 115 -73 68 0 355
-34 543 -65 415 -68 679 -177 830 -344 41 -45 106 -167 98 -182 -4 -6 -14 -7
-24 -3 -64 27 -155 33 -521 35 -241 1 -385 -1 -385 -7 0 -14 234 -209 375
-312 461 -339 879 -574 1340 -752 104 -40 177 -65 400 -137 33 -10 -18 -22
-145 -34 -276 -25 -821 7 -1120 67 -385 76 -734 205 -1105 409 -47 25 -93 49
-102 52 -10 3 -18 9 -18 14 0 5 -4 9 -9 9 -4 0 -93 49 -197 108 -260 148 -466
249 -634 310 -222 81 -395 119 -640 141 -232 22 -301 31 -358 53 -53 19 -112
61 -112 80 0 4 506 8 1124 8 648 0 1127 4 1130 9 3 5 -13 26 -37 46 -60 54
-361 350 -433 427 l-61 65 -99 7 c-54 4 -169 16 -254 27 -145 18 -179 24 -320
51 -84 16 -232 49 -260 58 -14 4 -45 13 -70 20 -92 26 -307 99 -365 124 -33
15 -69 30 -80 35 -48 20 -216 106 -278 143 -318 185 -600 465 -754 748 -16 30
-35 64 -41 75 -39 69 -114 254 -132 325 -5 19 -16 60 -24 90 -89 309 -97 738
-20 1115 14 72 21 97 49 200 73 270 235 581 405 780 65 76 124 135 135 135 7
0 20 -31 29 -72z"/>
</g>
</svg>
